<?xml version="1.0" encoding="UTF-8" standalone="no"?>
<svg
   id="visual"
   viewBox="0 0 900 385.00157"
   width="900"
   height="385.00159"
   version="1.1"
   sodipodi:docname="wave-haikei_1.svg"
   inkscape:version="1.1.1 (3bf5ae0d25, 2021-09-20)"
   xmlns:inkscape="http://www.inkscape.org/namespaces/inkscape"
   xmlns:sodipodi="http://sodipodi.sourceforge.net/DTD/sodipodi-0.dtd"
   xmlns="http://www.w3.org/2000/svg"
   xmlns:svg="http://www.w3.org/2000/svg">
  <defs
     id="defs859" />
  <sodipodi:namedview
     id="namedview857"
     pagecolor="#505050"
     bordercolor="#eeeeee"
     borderopacity="1"
     inkscape:pageshadow="0"
     inkscape:pageopacity="0"
     inkscape:pagecheckerboard="0"
     showgrid="false"
     units="px"
     inkscape:zoom="1.6822222"
     inkscape:cx="447.02774"
     inkscape:cy="155.15192"
     inkscape:window-width="2560"
     inkscape:window-height="1371"
     inkscape:window-x="1920"
     inkscape:window-y="32"
     inkscape:window-maximized="1"
     inkscape:current-layer="visual" />
  <path
     d="m 0,0 30,15.500063 c 30,15.500064 90,46.500191 150,58.700241 60,12.100049 120,5.500022 180,18.300074 60,12.800052 120,45.200182 180,63.800262 60,18.70008 120,23.7001 180,32.90013 60,9.10004 120,22.5001 150,29.10012 l 30,6.70003 v 160.00065 h -30 c -30,0 -90,0 -150,0 -60,0 -120,0 -180,0 -60,0 -120,0 -180,0 -60,0 -120,0 -180,0 -60,0 -120,0 -150,0 H 0 Z"
     fill="#ff8300"
     stroke-linecap="round"
     stroke-linejoin="miter"
     id="path854"
     style="stroke-width:1" />
</svg>
