<?xml version="1.0" encoding="UTF-8" standalone="no"?>
<svg
   id="visual"
   viewBox="0 0 900 385.00158"
   width="900"
   height="385.00159"
   version="1.1"
   sodipodi:docname="wave-haikei_3.svg"
   inkscape:version="1.1.1 (3bf5ae0d25, 2021-09-20)"
   xmlns:inkscape="http://www.inkscape.org/namespaces/inkscape"
   xmlns:sodipodi="http://sodipodi.sourceforge.net/DTD/sodipodi-0.dtd"
   xmlns="http://www.w3.org/2000/svg"
   xmlns:svg="http://www.w3.org/2000/svg">
  <defs
     id="defs1072" />
  <sodipodi:namedview
     id="namedview1070"
     pagecolor="#505050"
     bordercolor="#eeeeee"
     borderopacity="1"
     inkscape:pageshadow="0"
     inkscape:pageopacity="0"
     inkscape:pagecheckerboard="0"
     showgrid="false"
     inkscape:zoom="1.4177778"
     inkscape:cx="450"
     inkscape:cy="299.76489"
     inkscape:window-width="2560"
     inkscape:window-height="1371"
     inkscape:window-x="1920"
     inkscape:window-y="32"
     inkscape:window-maximized="1"
     inkscape:current-layer="visual" />
  <path
     d="m 0,362.4361 30,-7.69995 c 30,-7.59995 90,-22.99986 150,-25.59984 60,-2.69998 120,7.29995 180,2.49998 60,-4.89997 120,-24.49984 180,-23.89985 60,0.7 120,21.69987 180,32.3998 60,10.59993 120,10.99993 150,11.09993 l 30,0.2 v 32.99979 h -30 c -30,0 -90,0 -150,0 -60,0 -120,0 -180,0 -60,0 -120,0 -180,0 -60,0 -120,0 -180,0 -60,0 -120,0 -150,0 H 0 Z"
     fill="#fcaf3c"
     stroke-linecap="round"
     stroke-linejoin="miter"
     id="path1067"
     style="stroke-width:0.999997" />
</svg>
